<svg xmlns="http://www.w3.org/2000/svg" version="1.1" xmlns:xlink="http://www.w3.org/1999/xlink" xmlns:svgjs="http://svgjs.com/svgjs" width="1440" height="560" preserveAspectRatio="none" viewBox="0 0 1440 560"><g mask="url(&quot;#SvgjsMask1591&quot;)" fill="none"><rect width="1440" height="560" x="0" y="0" fill="url(#SvgjsLinearGradient1592)"></rect><path d="M1440 0L993.72 0L1440 98.05z" fill="rgba(255, 255, 255, .1)"></path><path d="M993.72 0L1440 98.05L1440 168.57L742.07 0z" fill="rgba(255, 255, 255, .075)"></path><path d="M742.07 0L1440 168.57L1440 245.45999999999998L662.6800000000001 0z" fill="rgba(255, 255, 255, .05)"></path><path d="M662.6800000000001 0L1440 245.45999999999998L1440 309.29999999999995L249.23000000000008 0z" fill="rgba(255, 255, 255, .025)"></path><path d="M0 560L540.52 560L0 372.76z" fill="rgba(0, 0, 0, .1)"></path><path d="M0 372.76L540.52 560L954.22 560L0 168.57999999999998z" fill="rgba(0, 0, 0, .075)"></path><path d="M0 168.57999999999998L954.22 560L1040.47 560L0 122.29999999999998z" fill="rgba(0, 0, 0, .05)"></path><path d="M0 122.29999999999995L1040.47 560L1241.21 560L0 65.22999999999996z" fill="rgba(0, 0, 0, .025)"></path></g><defs><mask id="SvgjsMask1591"><rect width="1440" height="560" fill="#ffffff"></rect></mask><linearGradient x1="15.28%" y1="-39.29%" x2="84.72%" y2="139.29%" gradientUnits="userSpaceOnUse" id="SvgjsLinearGradient1592"><stop stop-color="rgba(98, 85, 181, 1)" offset="0"></stop><stop stop-color="rgba(0, 0, 0, 1)" offset="1"></stop></linearGradient></defs></svg>